<?xml version="1.0" encoding="utf-8"?>
<!-- Generator: Adobe Illustrator 24.0.1, SVG Export Plug-In . SVG Version: 6.00 Build 0)  -->
<svg version="1.1" id="af24c1d2-8586-4e6b-81b3-4cf1a6f0777f"
	 xmlns="http://www.w3.org/2000/svg" xmlns:xlink="http://www.w3.org/1999/xlink" x="0px" y="0px" viewBox="0 0 961.8 550"
	 style="enable-background:new 0 0 961.8 550;" xml:space="preserve">
<style type="text/css">
	.st0{fill:#9FC131;}
	.st1{fill:#3F3D56;}
	.st2{fill:#2F2E41;}
	.st3{fill:#A0616A;}
	.st4{fill:#D0CDE1;}
	.st5{fill:none;stroke:#D0CDE1;stroke-width:2;stroke-miterlimit:10;}
	.st6{fill:#F7F7F7;}
	.st7{fill:#EEEEEE;}
</style>
<title>shared_workspace</title>
<g>
	<path class="st0" d="M684.8,448.7c14.4,15.4,15.1,38.1,15.1,38.1s-22.6-2.3-36.9-17.8S647.9,431,647.9,431S670.4,433.3,684.8,448.7
		z"/>
	<path class="st0" d="M730.1,472.8c-15.4,14.4-38.1,15.1-38.1,15.1s2.3-22.6,17.8-36.9s38.1-15.1,38.1-15.1S745.5,458.4,730.1,472.8
		z"/>
	<path class="st1" d="M726.2,518.6h-56.7c-2.2,0-4.2-1.3-5.2-3.3l-12.4-25.4c-1.4-2.9-0.2-6.4,2.7-7.8c0.8-0.4,1.7-0.6,2.5-0.6h81.4
		c3.2,0,5.8,2.6,5.8,5.8c0,0.9-0.2,1.7-0.6,2.5l-12.4,25.4C730.5,517.3,728.5,518.6,726.2,518.6z"/>
	<circle class="st2" cx="496.3" cy="251.3" r="23.4"/>
	<path class="st2" d="M502.8,228.6c12.9,0,23.4,10.5,23.4,23.4c0,3.9-1,7.7-2.8,11.1c8.1-10.1,6.4-24.8-3.7-32.9
		c-10.1-8.1-24.8-6.4-32.9,3.7c-0.9,1.1-1.7,2.3-2.3,3.5C489,231.8,495.7,228.6,502.8,228.6z"/>
	<circle class="st2" cx="452.6" cy="182.6" r="68.7"/>
	<path class="st2" d="M398.7,140c24.6-27.7,66.7-30.9,95.2-7.2c-0.6-0.5-1.1-1.1-1.7-1.6c-28.4-25.2-71.8-22.7-97,5.7
		c-25.2,28.4-22.7,71.8,5.7,97c0.6,0.5,1.2,1,1.8,1.5C375.9,209.8,374.1,167.6,398.7,140z"/>
	<circle class="st3" cx="452.1" cy="206.4" r="44.2"/>
	<path class="st3" d="M420.6,220.4c0,0,5.8,53.6-3.5,59.4s53.6,14,53.6,14s-9.3-58.2,14-73.3L420.6,220.4z"/>
	<path class="st4" d="M476.5,270.5c0,0,17.3-8.1-7.6-5.2s-46.5-8.2-46.5-8.2s-7.6-7.6-8.7,0.6c-1.2,8.1,3.5,23.3-22.1,25.6
		s-48.9-4.7-58.2,12.8s-4.7,93.1-4.7,93.1s17.5,62.9,31.4,72.2s136.2-3.5,136.2-3.5l34.9-62.9v-73.3c0,0-4.7-25.6-37.3-18.6
		c0,0-21-4.7-19.8-15.1S476.5,270.5,476.5,270.5z"/>
	<path class="st2" d="M364.7,505.9c0.7-3.1,1.2-4.9,1.2-4.9l-0.4-2.6l-3.8-26l-1.6-11c14-5.8,17.5-32.6,17.5-32.6l0.5-0.3l2.4-1.4v0
		l8.6-5.1l0.2-0.1l3.5,2.3l7,4.7c18.6,13.9,42.2,19.3,65,14.9c5.2-0.9,10.4-2.4,15.3-4.4l16.9-5.6l0.5-0.2l0.5,0.1l9.9,1.5l0.2,0
		l0.8,0.1l-2.3,15.9l-3.3,23.1c8.8,4.7,16.6,13.4,23.5,24.2c1.5,2.4,3,4.9,4.4,7.5c1.9,3.3,3.6,6.8,5.3,10.4
		c0.2,0.4,0.4,0.9,0.6,1.3c0.6,1.4,1.3,2.8,1.9,4.2H361.6c0.2-1.4,0.5-2.8,0.7-4.1c0,0,0-0.1,0-0.1c0.1-0.4,0.2-0.9,0.2-1.3
		C363.3,512,364.1,508.5,364.7,505.9z"/>
	<path class="st2" d="M357.8,282.1c0,0,12.8,23.3,8.1,52.4c-4.7,29.1,14,101.3,14,101.3l14-3.5c0,0-9.3-60.5-7-74.5
		c2.3-14,2.3-68.7-9.3-75.7S357.8,282.1,357.8,282.1z"/>
	<path class="st2" d="M493.1,306.3l4.9,128.9l9.3,5.8c0,0,13.4-141.4,6.4-141.4h-14.2c-3.5,0-6.4,2.9-6.4,6.4
		C493.1,306.1,493.1,306.2,493.1,306.3z"/>
	<circle class="st0" cx="386.3" cy="427" r="5.8"/>
	<circle class="st0" cx="502.7" cy="432.9" r="5.8"/>
	<polygon class="st2" points="414.2,151.1 414.2,195.4 424.5,195.4 437.5,181.4 435.8,195.4 481,195.4 478.2,181.4 483.8,195.4 
		491.1,195.4 491.1,151.1 	"/>
	<ellipse class="st3" cx="407.2" cy="197.1" rx="3.5" ry="6.4"/>
	<ellipse class="st3" cx="496.9" cy="197.1" rx="3.5" ry="6.4"/>
	<path class="st3" d="M520.7,432.3c0,0-53-9.9-56.5,7.6s58.8,9.9,58.8,9.9L520.7,432.3z"/>
	<path class="st4" d="M519.6,312.4c0,0,126.9,101.3,103.6,125.7s-111.8,17.5-111.8,17.5l5.8-29.1l51.2-5.8L542.9,395l-23.3,2.3
		L519.6,312.4z"/>
	<path class="st3" d="M332.1,481.2l16.3,12.8c0,0,11.6,36.1,29.1,25.6s-16.3-47.7-16.3-47.7l-19.8-7L332.1,481.2z"/>
	<path class="st4" d="M348.4,293.8l-16.3,4.9c0,0-113,83.6-117.6,106.9c-4.7,23.3,22.1,36.1,22.1,36.1L338,489.3l10.5-27.9
		l-47.7-24.4c0,0,3.5-7-10.5-8.1s-16.3-16.3-16.3-16.3s27.9-43.1,43.1-33.8c15.1,9.3,19.8,16.3,19.8,16.3L348.4,293.8z"/>
	<path class="st1" d="M580.3,509.9v3.9c0,1.1-0.2,2.1-0.6,3.1c-0.2,0.4-0.4,0.9-0.6,1.3c-1.6,2.6-4.4,4.2-7.4,4.2H284.8
		c-3,0-5.9-1.6-7.4-4.2c-0.2-0.4-0.5-0.8-0.6-1.3c-0.4-1-0.6-2.1-0.6-3.1v-3.9c0-4.8,3.9-8.6,8.6-8.6c0,0,0,0,0,0h16.5v-1.8
		c0-0.2,0.2-0.4,0.4-0.4c0,0,0,0,0,0h8.6c0.2,0,0.4,0.2,0.4,0.4c0,0,0,0,0,0v1.8h5.4v-1.8c0-0.2,0.2-0.4,0.4-0.4c0,0,0,0,0,0h8.6
		c0.2,0,0.4,0.2,0.4,0.4c0,0,0,0,0,0v1.8h5.4v-1.8c0-0.2,0.2-0.4,0.4-0.4c0,0,0,0,0,0h8.6c0.2,0,0.4,0.2,0.4,0.4c0,0,0,0,0,0v1.8
		h5.4v-1.8c0-0.2,0.2-0.4,0.4-0.4c0,0,0,0,0,0h8.6c0.2,0,0.4,0.2,0.4,0.4c0,0,0,0,0,0v1.8h5.4v-1.8c0-0.2,0.2-0.4,0.4-0.4
		c0,0,0,0,0,0h8.6c0.2,0,0.4,0.2,0.4,0.4c0,0,0,0,0,0v1.8h5.4v-1.8c0-0.2,0.2-0.4,0.4-0.4c0,0,0,0,0,0h8.6c0.2,0,0.4,0.2,0.4,0.4
		c0,0,0,0,0,0v1.8h5.4v-1.8c0-0.2,0.2-0.4,0.4-0.4c0,0,0,0,0,0h67.6c0.2,0,0.4,0.2,0.4,0.4c0,0,0,0,0,0v1.8h5.4v-1.8
		c0-0.2,0.2-0.4,0.4-0.4c0,0,0,0,0,0h8.6c0.2,0,0.4,0.2,0.4,0.4v1.8h5.4v-1.8c0-0.2,0.2-0.4,0.4-0.4c0,0,0,0,0,0h8.6
		c0.2,0,0.4,0.2,0.4,0.4c0,0,0,0,0,0v1.8h5.4v-1.8c0-0.2,0.2-0.4,0.4-0.4c0,0,0,0,0,0h8.6c0.2,0,0.4,0.2,0.4,0.4c0,0,0,0,0,0v1.8
		h5.4v-1.8c0-0.2,0.2-0.4,0.4-0.4c0,0,0,0,0,0h8.6c0.2,0,0.4,0.2,0.4,0.4v1.8h5.4v-1.8c0-0.2,0.2-0.4,0.4-0.4c0,0,0,0,0,0h8.6
		c0.2,0,0.4,0.2,0.4,0.4c0,0,0,0,0,0v1.8h5.4v-1.8c0-0.2,0.2-0.4,0.4-0.4c0,0,0,0,0,0h8.6c0.2,0,0.4,0.2,0.4,0.4c0,0,0,0,0,0v1.8
		h25.2C576.4,501.2,580.3,505.1,580.3,509.9C580.3,509.9,580.3,509.9,580.3,509.9z"/>
	<path class="st1" d="M557.2,345.6H450.2v-2.2h-48.5v2.2H294.4c-4,0-7.2,3.2-7.2,7.2v146.4c0,4,3.2,7.2,7.2,7.2h262.8
		c4,0,7.2-3.2,7.2-7.2V352.9C564.4,348.9,561.2,345.6,557.2,345.6z"/>
	<circle class="st5" cx="426" cy="396.8" r="16.1"/>
	<circle class="st4" cx="420.9" cy="402.5" r="16.1"/>
</g>
<rect x="11.8" y="517.6" class="st1" width="950" height="2"/>
<circle class="st1" cx="103.7" cy="418.6" r="56.5"/>
<circle class="st1" cx="310.9" cy="98.1" r="75.4"/>
<g>
	<path class="st6" d="M81.6,409.7v15.1h-3.2v-6.2h-6.9v6.2h-3.2v-15.1h3.2v5.9h6.9v-5.9H81.6z"/>
	<path class="st6" d="M88.5,412.7h-4.7v-2.9h12.7v2.9h-4.7v12.2h-3.3V412.7z"/>
	<path class="st6" d="M98.8,409.7h3.2l4.7,8.5l4.7-8.5h3.3v15.1h-3.3v-9.4l-4.7,8.5l-4.7-8.5v9.4h-3.2V409.7z"/>
	<path class="st6" d="M128.4,421.9v2.9h-10.8v-15.1h3.3v12.2H128.4z"/>
	<path class="st6" d="M129.8,422.8l1.9-2.3c1.1,1.1,2.5,1.8,4,1.8c1.7,0,2.8-1,2.8-2.3c0-1.3-1.1-2.2-2.7-2.2c-1.1,0-2.1,0.4-2.9,1
		l-2.2-0.9l0.2-8.2h10v2.9h-7l-0.1,3.3c0.7-0.5,1.7-0.9,2.9-0.9c2.7,0,5,1.7,5,4.8c0,3.2-2.4,5.3-6,5.3
		C133.1,425.1,131.2,424.2,129.8,422.8z"/>
</g>
<circle class="st1" cx="605.7" cy="293.8" r="42.2"/>
<g>
	<path class="st6" d="M585.1,284.9h6.8c3.3,0,5.7,2.1,5.7,5.1s-2.4,5.1-5.7,5.1h-3.6v4.9h-3.2V284.9z M591.5,292.1
		c1.6,0,2.7-0.8,2.7-2.1s-1.1-2.1-2.7-2.1h-3.2v4.3H591.5z"/>
	<path class="st6" d="M613,284.9V300h-3.2v-6.2h-6.9v6.2h-3.2v-15.1h3.2v5.9h6.9v-5.9H613z"/>
	<path class="st6" d="M615.9,284.9h6.8c3.3,0,5.7,2.1,5.7,5.1s-2.4,5.1-5.7,5.1h-3.6v4.9h-3.2V284.9z M622.4,292.1
		c1.6,0,2.7-0.8,2.7-2.1s-1.1-2.1-2.7-2.1h-3.2v4.3H622.4z"/>
</g>
<circle class="st0" cx="480.9" cy="54.5" r="48.2"/>
<g>
	<path class="st6" d="M451.1,54c0-4.2,3.7-7.8,8-7.8c2.3,0,4.4,1,5.9,2.5l-2.4,2.1c-0.9-1-2.1-1.7-3.5-1.7c-2.5,0-4.7,2.2-4.7,4.9
		c0,2.6,2.2,4.9,4.7,4.9c1.4,0,2.6-0.7,3.5-1.7l2.4,2.1c-1.5,1.5-3.6,2.5-5.9,2.5C454.8,61.8,451.1,58.2,451.1,54z"/>
	<path class="st6" d="M466,59.3l1.9-2.2c1.4,1.2,3.1,2,5,2c1.6,0,2.5-0.7,2.5-1.7c0-1.1-0.9-1.4-3.2-1.9c-3.2-0.7-5.5-1.6-5.5-4.6
		c0-2.8,2.3-4.7,5.6-4.7c2.5,0,4.4,0.8,5.9,2.1l-1.7,2.3c-1.3-1.1-2.9-1.7-4.3-1.7c-1.4,0-2.2,0.7-2.2,1.6c0,1.1,0.9,1.5,3.2,2
		c3.3,0.7,5.4,1.7,5.4,4.5c0,2.9-2.2,4.8-5.9,4.8C470.1,61.8,467.7,60.9,466,59.3z"/>
	<path class="st6" d="M479.9,59.3l1.9-2.2c1.4,1.2,3.1,2,5,2c1.6,0,2.5-0.7,2.5-1.7c0-1.1-0.9-1.4-3.2-1.9c-3.2-0.7-5.5-1.6-5.5-4.6
		c0-2.8,2.3-4.7,5.6-4.7c2.5,0,4.4,0.8,5.9,2.1l-1.7,2.3c-1.3-1.1-2.9-1.7-4.3-1.7c-1.4,0-2.2,0.7-2.2,1.6c0,1.1,0.9,1.5,3.2,2
		c3.3,0.7,5.4,1.7,5.4,4.5c0,2.9-2.2,4.8-5.9,4.8C484,61.8,481.7,60.9,479.9,59.3z"/>
	<path class="st6" d="M493.9,59.3l1.9-2.2c1.1,1.1,2.5,1.8,4,1.8c1.7,0,2.6-0.8,2.6-1.8c0-1.2-0.9-1.8-2.9-1.7h-1.7v-2.8l1.7,0
		c1.6,0,2.6-0.6,2.6-1.7c0-1.1-1-1.8-2.5-1.8c-1.4,0-2.6,0.7-3.6,1.8l-1.9-2c1.3-1.5,3.1-2.7,5.7-2.7c3.4,0,5.5,1.7,5.5,4.1
		c0,1.7-1.2,3-2.8,3.5c1.7,0.4,3.2,1.5,3.2,3.5c0,2.6-2.3,4.5-5.8,4.5C497.2,61.8,495.2,60.8,493.9,59.3z"/>
</g>
<g>
	<path class="st7" d="M245.6,89.9h3.2l2.5,9.2l3-9.2h3.2l3,9.2l2.5-9.2h3.2l-4.2,13.7h-3l-3.2-9.4l-3.3,9.4h-3L245.6,89.9z"/>
	<path class="st7" d="M267.5,96.8c0-3.9,3.4-7.1,7.3-7.1c4,0,7.3,3.2,7.3,7.1s-3.3,7.1-7.3,7.1C270.9,103.9,267.5,100.6,267.5,96.8z
		 M279.1,96.8c0-2.4-2-4.4-4.3-4.4c-2.3,0-4.3,2-4.3,4.4c0,2.4,2,4.4,4.3,4.4C277.2,101.2,279.1,99.2,279.1,96.8z"/>
	<path class="st7" d="M292.6,103.6l-3.1-4.5h-2.2v4.5h-2.9V89.9h6.2c3,0,5.2,1.9,5.2,4.6c0,2-1.2,3.6-3.1,4.3l3.4,4.8H292.6z
		 M287.3,96.5h2.9c1.5,0,2.5-0.8,2.5-1.9s-1-1.9-2.5-1.9h-2.9V96.5z"/>
	<path class="st7" d="M298,89.9h4.9c4.6,0,7.9,2.8,7.9,6.9c0,4-3.3,6.9-7.9,6.9H298V89.9z M303.3,101c2.6,0,4.5-1.7,4.5-4.2
		c0-2.4-1.9-4.2-4.5-4.2h-2.4v8.4H303.3z"/>
	<path class="st7" d="M313.1,89.9h6.2c3,0,5.2,1.9,5.2,4.6s-2.2,4.6-5.2,4.6H316v4.5h-2.9V89.9z M319,96.5c1.5,0,2.5-0.8,2.5-1.9
		s-1-1.9-2.5-1.9H316v3.9H319z"/>
	<path class="st7" d="M334.6,103.6l-3.1-4.5h-2.2v4.5h-2.9V89.9h6.2c3,0,5.2,1.9,5.2,4.6c0,2-1.2,3.6-3.1,4.3l3.4,4.8H334.6z
		 M329.2,96.5h2.9c1.5,0,2.5-0.8,2.5-1.9s-1-1.9-2.5-1.9h-2.9V96.5z"/>
	<path class="st7" d="M342.8,92.6v2.7h6.9V98h-6.9v3h7.6v2.7h-10.6V89.9h10.6v2.7H342.8z"/>
	<path class="st7" d="M351.8,101.6l1.7-2c1.3,1.1,2.8,1.8,4.5,1.8c1.5,0,2.2-0.7,2.2-1.5c0-1-0.8-1.3-2.9-1.8c-2.9-0.7-5-1.5-5-4.1
		c0-2.5,2.1-4.3,5.1-4.3c2.2,0,4,0.7,5.4,1.9l-1.5,2.1c-1.2-1-2.6-1.5-3.9-1.5c-1.3,0-2,0.7-2,1.5c0,1,0.8,1.3,2.9,1.8
		c3,0.7,4.9,1.5,4.9,4.1c0,2.6-2,4.4-5.3,4.4C355.5,103.9,353.4,103.1,351.8,101.6z"/>
	<path class="st7" d="M364.4,101.6l1.7-2c1.3,1.1,2.8,1.8,4.5,1.8c1.5,0,2.2-0.7,2.2-1.5c0-1-0.8-1.3-2.9-1.8c-2.9-0.7-5-1.5-5-4.1
		c0-2.5,2.1-4.3,5.1-4.3c2.2,0,4,0.7,5.4,1.9l-1.5,2.1c-1.2-1-2.6-1.5-3.9-1.5c-1.3,0-2,0.7-2,1.5c0,1,0.8,1.3,2.9,1.8
		c3,0.7,4.9,1.5,4.9,4.1c0,2.6-2,4.4-5.3,4.4C368.2,103.9,366,103.1,364.4,101.6z"/>
</g>
<circle class="st0" cx="182.3" cy="244.1" r="79.2"/>
<circle class="st1" cx="638.8" cy="100" r="75.4"/>
<g>
	<path class="st7" d="M576.9,103.5l2-1.9c0.4,0.9,1.4,1.5,2.3,1.5c1.2,0,2.1-0.9,2.1-2.3v-9h3v9.3c0,2.8-2,4.7-4.7,4.7
		C579.8,105.8,577.8,104.9,576.9,103.5z"/>
	<path class="st7" d="M598.1,103.4H592l-0.9,2.2h-3.3l5.6-13.7h3.3l5.6,13.7H599L598.1,103.4z M597.1,100.9l-2-5l-2,5H597.1z"/>
	<path class="st7" d="M615.6,91.8l-5.6,13.7h-3.3l-5.6-13.7h3.3l3.9,9.7l3.9-9.7H615.6z"/>
	<path class="st7" d="M624.7,103.4h-6.1l-0.9,2.2h-3.3l5.6-13.7h3.3l5.6,13.7h-3.3L624.7,103.4z M623.7,100.9l-2-5l-2,5H623.7z"/>
	<path class="st7" d="M629.6,103.5l1.7-2c1.3,1.1,2.8,1.8,4.5,1.8c1.5,0,2.2-0.7,2.2-1.5c0-1-0.8-1.3-2.9-1.8c-2.9-0.7-5-1.5-5-4.1
		c0-2.5,2.1-4.3,5.1-4.3c2.2,0,4,0.7,5.4,1.9l-1.5,2.1c-1.2-1-2.6-1.5-3.9-1.5c-1.3,0-2,0.7-2,1.5c0,1,0.8,1.3,2.9,1.8
		c3,0.7,4.9,1.5,4.9,4.1c0,2.6-2,4.4-5.3,4.4C633.3,105.8,631.2,105,629.6,103.5z"/>
	<path class="st7" d="M642.6,98.7c0-3.9,3.4-7.1,7.3-7.1c2.1,0,4,0.9,5.3,2.3l-2.1,1.9c-0.8-0.9-1.9-1.5-3.2-1.5
		c-2.3,0-4.3,2-4.3,4.4c0,2.4,2,4.4,4.3,4.4c1.3,0,2.4-0.6,3.2-1.5l2.1,1.9c-1.3,1.4-3.3,2.3-5.3,2.3
		C646,105.8,642.6,102.5,642.6,98.7z"/>
	<path class="st7" d="M665.4,105.6l-3.1-4.5H660v4.5h-2.9V91.8h6.2c3,0,5.2,1.9,5.2,4.6c0,2-1.2,3.6-3.1,4.3l3.4,4.8H665.4z
		 M660,98.4h2.9c1.5,0,2.5-0.8,2.5-1.9s-1-1.9-2.5-1.9H660V98.4z"/>
	<path class="st7" d="M670.7,91.8h3v13.7h-3V91.8z"/>
	<path class="st7" d="M676.4,91.8h6.2c3,0,5.2,1.9,5.2,4.6s-2.2,4.6-5.2,4.6h-3.2v4.5h-2.9V91.8z M682.3,98.4c1.5,0,2.5-0.8,2.5-1.9
		s-1-1.9-2.5-1.9h-2.9v3.9H682.3z"/>
	<path class="st7" d="M693.2,94.5h-4.3v-2.7h11.5v2.7h-4.3v11.1h-3V94.5z"/>
</g>
<circle class="st1" cx="853.7" cy="370.3" r="75.4"/>
<g>
	<path class="st7" d="M791.9,362.1h7c2.5,0,4.2,1.4,4.2,3.4c0,1.4-0.7,2.4-1.9,3.1c1.6,0.7,2.5,2,2.5,3.5c0,2.2-1.9,3.7-4.5,3.7
		h-7.2V362.1z M798.2,367.6c1.1,0,1.9-0.6,1.9-1.5c0-0.9-0.8-1.5-1.9-1.5h-3.3v3H798.2z M798.6,373.3c1.2,0,2-0.7,2-1.7
		s-0.8-1.7-2-1.7h-3.7v3.4H798.6z"/>
	<path class="st7" d="M805.3,368.9c0-3.9,3.4-7.1,7.3-7.1c4,0,7.3,3.2,7.3,7.1c0,3.9-3.3,7.1-7.3,7.1
		C808.6,376.1,805.3,372.8,805.3,368.9z M816.9,368.9c0-2.4-2-4.4-4.3-4.4c-2.3,0-4.3,2-4.3,4.4c0,2.4,2,4.4,4.3,4.4
		C814.9,373.4,816.9,371.3,816.9,368.9z"/>
	<path class="st7" d="M821.5,368.9c0-3.9,3.4-7.1,7.3-7.1c4,0,7.3,3.2,7.3,7.1c0,3.9-3.3,7.1-7.3,7.1
		C824.9,376.1,821.5,372.8,821.5,368.9z M833.1,368.9c0-2.4-2-4.4-4.3-4.4c-2.3,0-4.3,2-4.3,4.4c0,2.4,2,4.4,4.3,4.4
		C831.1,373.4,833.1,371.3,833.1,368.9z"/>
	<path class="st7" d="M841.8,364.7h-4.3v-2.7h11.5v2.7h-4.3v11.1h-3V364.7z"/>
	<path class="st7" d="M850.2,373.8l1.7-2c1.3,1.1,2.8,1.8,4.5,1.8c1.5,0,2.2-0.7,2.2-1.5c0-1-0.8-1.3-2.9-1.8c-2.9-0.7-5-1.5-5-4.1
		c0-2.5,2.1-4.3,5.1-4.3c2.2,0,4,0.7,5.4,1.9l-1.5,2.1c-1.2-1-2.6-1.5-3.9-1.5c-1.3,0-2,0.7-2,1.5c0,1,0.8,1.3,2.9,1.8
		c3,0.7,4.9,1.5,4.9,4.1c0,2.6-2,4.4-5.3,4.4C853.9,376.1,851.8,375.3,850.2,373.8z"/>
	<path class="st7" d="M867.3,364.7H863v-2.7h11.5v2.7h-4.3v11.1h-3V364.7z"/>
	<path class="st7" d="M884.8,375.8l-3.1-4.5h-2.2v4.5h-2.9v-13.7h6.2c3,0,5.2,1.9,5.2,4.6c0,2-1.2,3.6-3.1,4.3l3.4,4.8H884.8z
		 M879.4,368.7h2.9c1.5,0,2.5-0.8,2.5-1.9c0-1.2-1-1.9-2.5-1.9h-2.9V368.7z"/>
	<path class="st7" d="M899.3,373.7h-6.1l-0.9,2.2H889l5.6-13.7h3.3l5.6,13.7h-3.3L899.3,373.7z M898.3,371.2l-2-5l-2,5H898.3z"/>
	<path class="st7" d="M905.1,362.1h6.2c3,0,5.2,1.9,5.2,4.6s-2.2,4.6-5.2,4.6H908v4.5h-2.9V362.1z M910.9,368.7
		c1.5,0,2.5-0.8,2.5-1.9c0-1.2-1-1.9-2.5-1.9H908v3.9H910.9z"/>
</g>
<circle class="st0" cx="103.9" cy="96.5" r="56.5"/>
<g>
	<path class="st7" d="M65.6,87.6h3.2v6.9l6.1-6.9h3.9L73,94.2l6.3,8.6h-3.9l-4.6-6.2l-1.9,2v4.2h-3.2V87.6z"/>
	<path class="st7" d="M79.7,95.2c0-4.2,3.7-7.8,8-7.8c4.4,0,8,3.6,8,7.8c0,4.2-3.7,7.8-8,7.8C83.4,103,79.7,99.4,79.7,95.2z
		 M92.5,95.2c0-2.6-2.2-4.9-4.7-4.9c-2.5,0-4.7,2.2-4.7,4.9c0,2.6,2.2,4.9,4.7,4.9C90.3,100,92.5,97.8,92.5,95.2z"/>
	<path class="st7" d="M102.1,90.5h-4.7v-2.9h12.7v2.9h-4.7v12.2h-3.3V90.5z"/>
	<path class="st7" d="M122.9,99.8v2.9h-10.8V87.6h3.3v12.2H122.9z"/>
	<path class="st7" d="M125,87.6h3.3v15.1H125V87.6z"/>
	<path class="st7" d="M131.4,87.6h3.2l7.3,9.8v-9.8h3.3v15.1h-3.3l-7.3-9.8v9.8h-3.2V87.6z"/>
</g>
<g>
	<path class="st7" d="M153.6,234.6h-6.7l-1,2.4h-3.6l6.2-15.1h3.6l6.2,15.1h-3.7L153.6,234.6z M152.5,231.8l-2.2-5.5l-2.2,5.5H152.5
		z"/>
	<path class="st7" d="M160.1,221.8h5.4c5.1,0,8.7,3.1,8.7,7.5c0,4.4-3.6,7.6-8.7,7.6h-5.4V221.8z M166,234c2.9,0,4.9-1.9,4.9-4.6
		c0-2.7-2-4.6-4.9-4.6h-2.6v9.2H166z"/>
	<path class="st7" d="M176.1,229.4c0-4.2,3.7-7.8,8-7.8c4.4,0,8,3.6,8,7.8c0,4.2-3.7,7.8-8,7.8C179.8,237.2,176.1,233.6,176.1,229.4
		z M188.9,229.4c0-2.6-2.2-4.9-4.7-4.9c-2.5,0-4.7,2.2-4.7,4.9c0,2.6,2.2,4.9,4.7,4.9C186.7,234.3,188.9,232,188.9,229.4z"/>
	<path class="st7" d="M194.7,221.8h7.7c2.7,0,4.6,1.6,4.6,3.8c0,1.5-0.8,2.7-2.1,3.4c1.8,0.8,2.8,2.2,2.8,3.9c0,2.4-2.1,4.1-5,4.1
		h-7.9V221.8z M201.6,227.9c1.2,0,2.1-0.7,2.1-1.7c0-0.9-0.9-1.7-2.1-1.7H198v3.3H201.6z M202.1,234.2c1.3,0,2.2-0.8,2.2-1.8
		s-0.9-1.8-2.2-1.8H198v3.7H202.1z"/>
	<path class="st7" d="M213.2,224.7v3h7.6v2.9h-7.6v3.3h8.4v2.9H210v-15.1h11.6v2.9H213.2z"/>
	<path class="st7" d="M107.6,248.2h3.3v15.1h-3.3V248.2z"/>
	<path class="st7" d="M124.5,260.4v2.9h-10.8v-15.1h3.3v12.2H124.5z"/>
	<path class="st7" d="M137.3,260.4v2.9h-10.8v-15.1h3.3v12.2H137.3z"/>
	<path class="st7" d="M139.3,256.8v-8.6h3.2v8.4c0,2.3,1.5,4,3.6,4c2.1,0,3.6-1.6,3.6-4v-8.4h3.3v8.6c0,4-2.8,6.8-6.8,6.8
		C142.2,263.6,139.3,260.8,139.3,256.8z"/>
	<path class="st7" d="M155,261.1l1.9-2.2c1.4,1.2,3.1,2,5,2c1.6,0,2.5-0.7,2.5-1.7c0-1.1-0.9-1.4-3.2-1.9c-3.2-0.7-5.5-1.6-5.5-4.6
		c0-2.8,2.3-4.7,5.6-4.7c2.5,0,4.4,0.8,5.9,2.1l-1.7,2.3c-1.3-1.1-2.9-1.7-4.3-1.7c-1.4,0-2.2,0.7-2.2,1.6c0,1.1,0.9,1.5,3.2,2
		c3.3,0.7,5.4,1.7,5.4,4.5c0,2.9-2.2,4.8-5.9,4.8C159.1,263.6,156.7,262.7,155,261.1z"/>
	<path class="st7" d="M173.8,251.1h-4.7v-2.9h12.7v2.9h-4.7v12.2h-3.3V251.1z"/>
	<path class="st7" d="M193,263.3l-3.5-4.9h-2.4v4.9H184v-15.1h6.8c3.3,0,5.7,2.1,5.7,5.1c0,2.2-1.4,4-3.4,4.7l3.7,5.3H193z
		 M187.2,255.5h3.2c1.6,0,2.7-0.8,2.7-2.1c0-1.3-1.1-2.1-2.7-2.1h-3.2V255.5z"/>
	<path class="st7" d="M209,261h-6.7l-1,2.4h-3.6l6.2-15.1h3.6l6.2,15.1H210L209,261z M207.9,258.2l-2.2-5.5l-2.2,5.5H207.9z"/>
	<path class="st7" d="M217.9,251.1h-4.7v-2.9h12.7v2.9h-4.7v12.2h-3.3V251.1z"/>
	<path class="st7" d="M226.7,255.8c0-4.2,3.7-7.8,8-7.8c4.4,0,8,3.6,8,7.8c0,4.2-3.7,7.8-8,7.8C230.4,263.6,226.7,260,226.7,255.8z
		 M239.4,255.8c0-2.6-2.2-4.9-4.7-4.9c-2.5,0-4.7,2.2-4.7,4.9c0,2.6,2.2,4.9,4.7,4.9C237.2,260.7,239.4,258.4,239.4,255.8z"/>
	<path class="st7" d="M254.2,263.3l-3.5-4.9h-2.4v4.9h-3.2v-15.1h6.8c3.3,0,5.7,2.1,5.7,5.1c0,2.2-1.4,4-3.4,4.7l3.7,5.3H254.2z
		 M248.4,255.5h3.2c1.6,0,2.7-0.8,2.7-2.1c0-1.3-1.1-2.1-2.7-2.1h-3.2V255.5z"/>
</g>
<circle class="st0" cx="836.1" cy="162.2" r="79.2"/>
<g>
	<path class="st7" d="M807.4,152.7h-6.7l-1,2.4h-3.6l6.2-15.1h3.6l6.2,15.1h-3.7L807.4,152.7z M806.3,149.9l-2.2-5.5l-2.2,5.5H806.3
		z"/>
	<path class="st7" d="M814,140h5.4c5.1,0,8.7,3.1,8.7,7.5c0,4.4-3.6,7.6-8.7,7.6H814V140z M819.8,152.1c2.9,0,4.9-1.9,4.9-4.6
		c0-2.7-2-4.6-4.9-4.6h-2.6v9.2H819.8z"/>
	<path class="st7" d="M830,147.5c0-4.2,3.7-7.8,8-7.8c4.4,0,8,3.6,8,7.8c0,4.2-3.7,7.8-8,7.8C833.7,155.3,830,151.8,830,147.5z
		 M842.7,147.5c0-2.6-2.2-4.9-4.7-4.9c-2.5,0-4.7,2.2-4.7,4.9c0,2.6,2.2,4.9,4.7,4.9C840.6,152.4,842.7,150.1,842.7,147.5z"/>
	<path class="st7" d="M848.6,140h7.7c2.7,0,4.6,1.6,4.6,3.8c0,1.5-0.8,2.7-2.1,3.4c1.8,0.8,2.8,2.2,2.8,3.9c0,2.4-2.1,4.1-5,4.1
		h-7.9V140z M855.4,146.1c1.2,0,2.1-0.7,2.1-1.7c0-0.9-0.9-1.7-2.1-1.7h-3.6v3.3H855.4z M855.9,152.3c1.3,0,2.2-0.8,2.2-1.8
		s-0.9-1.8-2.2-1.8h-4.1v3.7H855.9z"/>
	<path class="st7" d="M867.1,142.9v3h7.6v2.9h-7.6v3.3h8.4v2.9h-11.6V140h11.6v2.9H867.1z"/>
	<path class="st7" d="M766.3,166.4h6.8c3.3,0,5.7,2.1,5.7,5.1c0,3-2.4,5.1-5.7,5.1h-3.6v4.9h-3.2V166.4z M772.8,173.6
		c1.6,0,2.7-0.8,2.7-2.1c0-1.3-1.1-2.1-2.7-2.1h-3.2v4.3H772.8z"/>
	<path class="st7" d="M794.2,166.4v15.1H791v-6.2h-6.9v6.2h-3.2v-15.1h3.2v5.9h6.9v-5.9H794.2z"/>
	<path class="st7" d="M796.6,173.9c0-4.2,3.7-7.8,8-7.8c4.4,0,8,3.6,8,7.8c0,4.2-3.7,7.8-8,7.8C800.3,181.7,796.6,178.2,796.6,173.9
		z M809.3,173.9c0-2.6-2.2-4.9-4.7-4.9c-2.5,0-4.7,2.2-4.7,4.9c0,2.6,2.2,4.9,4.7,4.9C807.2,178.8,809.3,176.5,809.3,173.9z"/>
	<path class="st7" d="M819,169.3h-4.7v-2.9h12.7v2.9h-4.7v12.2H819V169.3z"/>
	<path class="st7" d="M827.8,173.9c0-4.2,3.7-7.8,8-7.8c4.4,0,8,3.6,8,7.8c0,4.2-3.7,7.8-8,7.8C831.5,181.7,827.8,178.2,827.8,173.9
		z M840.5,173.9c0-2.6-2.2-4.9-4.7-4.9c-2.5,0-4.7,2.2-4.7,4.9c0,2.6,2.2,4.9,4.7,4.9C838.4,178.8,840.5,176.5,840.5,173.9z"/>
	<path class="st7" d="M845.2,179.2l1.9-2.2c1.4,1.2,3.1,2,5,2c1.6,0,2.5-0.7,2.5-1.7c0-1.1-0.9-1.4-3.2-1.9
		c-3.2-0.7-5.5-1.6-5.5-4.6c0-2.8,2.3-4.7,5.6-4.7c2.5,0,4.4,0.8,5.9,2.1l-1.7,2.3c-1.3-1.1-2.9-1.7-4.3-1.7c-1.4,0-2.2,0.7-2.2,1.6
		c0,1.1,0.9,1.5,3.2,2c3.3,0.7,5.4,1.7,5.4,4.5c0,2.9-2.2,4.8-5.9,4.8C849.3,181.7,847,180.9,845.2,179.2z"/>
	<path class="st7" d="M873.5,166.4v15.1h-3.2v-6.2h-6.9v6.2h-3.2v-15.1h3.2v5.9h6.9v-5.9H873.5z"/>
	<path class="st7" d="M875.9,173.9c0-4.2,3.7-7.8,8-7.8c4.4,0,8,3.6,8,7.8c0,4.2-3.7,7.8-8,7.8C879.6,181.7,875.9,178.2,875.9,173.9
		z M888.6,173.9c0-2.6-2.2-4.9-4.7-4.9c-2.5,0-4.7,2.2-4.7,4.9c0,2.6,2.2,4.9,4.7,4.9C886.5,178.8,888.6,176.5,888.6,173.9z"/>
	<path class="st7" d="M894.4,166.4h6.8c3.3,0,5.7,2.1,5.7,5.1c0,3-2.4,5.1-5.7,5.1h-3.6v4.9h-3.2V166.4z M900.8,173.6
		c1.6,0,2.7-0.8,2.7-2.1c0-1.3-1.1-2.1-2.7-2.1h-3.2v4.3H900.8z"/>
</g>
</svg>
