<?xml version="1.0" encoding="utf-8"?>
<!-- Generator: Adobe Illustrator 24.0.1, SVG Export Plug-In . SVG Version: 6.00 Build 0)  -->
<svg version="1.1" id="Layer_1" xmlns="http://www.w3.org/2000/svg" xmlns:xlink="http://www.w3.org/1999/xlink" x="0px" y="0px"
	 viewBox="0 0 1500 1500" style="enable-background:new 0 0 1500 1500;" xml:space="preserve">
<style type="text/css">
	.st0{display:none;fill:#EEEEEE;}
	.st1{display:none;}
	.st2{display:inline;}
	.st3{fill:#222831;}
	.st4{fill:#00ADB5;}
	.st5{fill:#9FC131;}
	.st6{fill:none;stroke:#000000;stroke-miterlimit:10;}
</style>
<g id="Layer_6">
	<rect class="st0" width="1500" height="1500"/>
</g>
<g id="Layer_5">
	<g class="st1">
		<g class="st2">
			<path class="st3" d="M-278.48,582.08c0,54.77-44.4,99.16-99.16,99.16h-198.32c-36.12,0-69.99-9.65-99.15-26.54
				c-30.11-17.41-55.21-42.51-72.63-72.63c-16.88-29.17-26.54-63.04-26.54-99.15c0-36.12,9.66-69.99,26.54-99.16
				c17.42-30.11,42.52-55.22,72.63-72.63c29.17-16.88,63.03-26.54,99.15-26.54h297.48c0,54.77-44.4,99.16-99.16,99.16h-198.32
				c-54.76,0-99.15,44.4-99.15,99.16c0,54.76,44.4,99.15,99.15,99.15H-278.48z"/>
		</g>
		<g class="st2">
			<path class="st4" d="M-774.46,730.16c0,54.77,44.4,99.16,99.16,99.16h373.5c36.12,0,69.99-9.65,99.15-26.54
				c30.11-17.41,55.21-42.51,72.63-72.63c16.88-29.17,26.54-63.04,26.54-99.15c0-36.12-9.66-69.99-26.54-99.16
				c-17.42-30.11-42.52-55.22-72.63-72.63c-29.17-16.88-63.03-26.54-99.15-26.54h-297.48c0,54.77,44.4,99.16,99.16,99.16h198.32
				c54.76,0,99.15,44.4,99.15,99.16c0,54.76-44.4,99.15-99.15,99.15H-774.46z"/>
		</g>
	</g>
</g>
<g id="Layer_4">
	<g>
		<path class="st3" d="M910.49,775.12c0,54.77-44.4,99.16-99.16,99.16H613.01c-36.12,0-69.99-9.65-99.15-26.54
			c-30.11-17.41-55.21-42.51-72.63-72.63c-16.88-29.17-26.54-63.04-26.54-99.15c0-36.12,9.66-69.99,26.54-99.16
			c17.42-30.11,42.52-55.22,72.63-72.63c29.17-16.88,63.03-26.54,99.15-26.54h297.48c0,54.77-44.4,99.16-99.16,99.16H613.01
			c-54.76,0-99.15,44.4-99.15,99.16c0,54.76,44.4,99.15,99.15,99.15H910.49z"/>
	</g>
</g>
<g id="Layer_3">
	<g>
		<path class="st5" d="M414.51,923.2c0,54.77,44.4,99.16,99.16,99.16h373.5c36.12,0,69.99-9.65,99.15-26.54
			c30.11-17.41,55.21-42.51,72.63-72.63c16.88-29.17,26.54-63.04,26.54-99.15c0-36.12-9.66-69.99-26.54-99.16
			c-17.42-30.11-42.52-55.22-72.63-72.63c-29.17-16.88-63.03-26.54-99.15-26.54H589.7c0,54.77,44.4,99.16,99.16,99.16h198.32
			c54.76,0,99.15,44.4,99.15,99.16c0,54.76-44.4,99.15-99.15,99.15H414.51z"/>
	</g>
</g>
<g id="Layer_2" class="st1">
	<g class="st2">
		<rect x="577.8" y="-447.15" class="st6" width="134.15" height="134.15"/>
		<rect x="711.95" y="-447.15" class="st6" width="134.15" height="134.15"/>
		<rect x="846.09" y="-447.15" class="st6" width="134.15" height="134.15"/>
		<rect x="980.24" y="-447.15" class="st6" width="134.15" height="134.15"/>
		<rect x="1114.39" y="-447.15" class="st6" width="134.15" height="134.15"/>
		<rect x="1248.53" y="-447.15" class="st6" width="134.15" height="134.15"/>
		<rect x="577.8" y="-581.29" class="st6" width="134.15" height="134.15"/>
		<rect x="711.95" y="-581.29" class="st6" width="134.15" height="134.15"/>
		<rect x="846.09" y="-581.29" class="st6" width="134.15" height="134.15"/>
		<rect x="980.24" y="-581.29" class="st6" width="134.15" height="134.15"/>
		<rect x="1114.39" y="-581.29" class="st6" width="134.15" height="134.15"/>
		<rect x="1248.53" y="-581.29" class="st6" width="134.15" height="134.15"/>
		<rect x="577.8" y="-178.85" class="st6" width="134.15" height="134.15"/>
		<rect x="711.95" y="-178.85" class="st6" width="134.15" height="134.15"/>
		<rect x="846.09" y="-178.85" class="st6" width="134.15" height="134.15"/>
		<rect x="980.24" y="-178.85" class="st6" width="134.15" height="134.15"/>
		<rect x="1114.39" y="-178.85" class="st6" width="134.15" height="134.15"/>
		<rect x="1248.53" y="-178.85" class="st6" width="134.15" height="134.15"/>
		<rect x="577.8" y="-313" class="st6" width="134.15" height="134.15"/>
		<rect x="711.95" y="-313" class="st6" width="134.15" height="134.15"/>
		<rect x="846.09" y="-313" class="st6" width="134.15" height="134.15"/>
		<rect x="980.24" y="-313" class="st6" width="134.15" height="134.15"/>
		<rect x="1114.39" y="-313" class="st6" width="134.15" height="134.15"/>
		<rect x="1248.53" y="-313" class="st6" width="134.15" height="134.15"/>
		<rect x="577.8" y="-715.44" class="st6" width="134.15" height="134.15"/>
		<rect x="711.95" y="-715.44" class="st6" width="134.15" height="134.15"/>
		<rect x="846.09" y="-715.44" class="st6" width="134.15" height="134.15"/>
		<rect x="980.24" y="-715.44" class="st6" width="134.15" height="134.15"/>
		<rect x="1114.39" y="-715.44" class="st6" width="134.15" height="134.15"/>
		<rect x="1248.53" y="-715.44" class="st6" width="134.15" height="134.15"/>
		<rect x="577.8" y="-849.59" class="st6" width="134.15" height="134.15"/>
		<rect x="711.95" y="-849.59" class="st6" width="134.15" height="134.15"/>
		<rect x="846.09" y="-849.59" class="st6" width="134.15" height="134.15"/>
		<rect x="980.24" y="-849.59" class="st6" width="134.15" height="134.15"/>
		<rect x="1114.39" y="-849.59" class="st6" width="134.15" height="134.15"/>
		<rect x="1248.53" y="-849.59" class="st6" width="134.15" height="134.15"/>
	</g>
</g>
</svg>
