<?xml version="1.0" encoding="utf-8"?>
<!-- Generator: Adobe Illustrator 24.0.1, SVG Export Plug-In . SVG Version: 6.00 Build 0)  -->
<svg version="1.1" id="Layer_1" xmlns="http://www.w3.org/2000/svg" xmlns:xlink="http://www.w3.org/1999/xlink" x="0px" y="0px"
	 viewBox="0 0 1500 1125" style="enable-background:new 0 0 1500 1125;" xml:space="preserve">
<style type="text/css">
	.st0{display:none;}
	.st1{fill:#EEEEEE;}
	.st2{fill:#9FC131;}
</style>
<rect class="st0" width="1500" height="1125"/>
<g>
	<path class="st1" d="M928.57,551.72c0,54.77-44.4,99.16-99.16,99.16H631.09c-36.12,0-69.99-9.65-99.15-26.54
		c-30.11-17.41-55.21-42.51-72.63-72.63c-16.88-29.17-26.54-63.04-26.54-99.15c0-36.12,9.66-69.99,26.54-99.16
		c17.42-30.11,42.52-55.22,72.63-72.63c29.17-16.88,63.03-26.54,99.15-26.54h297.48c0,54.77-44.4,99.16-99.16,99.16H631.09
		c-54.76,0-99.15,44.4-99.15,99.16c0,54.76,44.4,99.15,99.15,99.15H928.57z"/>
</g>
<g>
	<path class="st2" d="M432.58,699.8c0,54.77,44.4,99.16,99.16,99.16h373.5c36.12,0,69.99-9.65,99.15-26.54
		c30.11-17.41,55.21-42.51,72.63-72.63c16.88-29.17,26.54-63.04,26.54-99.15c0-36.12-9.66-69.99-26.54-99.16
		c-17.42-30.11-42.52-55.22-72.63-72.63c-29.17-16.88-63.03-26.54-99.15-26.54H607.77c0,54.77,44.4,99.16,99.16,99.16h198.32
		c54.76,0,99.15,44.4,99.15,99.16c0,54.76-44.4,99.15-99.15,99.15H432.58z"/>
</g>
</svg>
